<?xml version="1.0" encoding="utf-8"?>
<!-- Uploaded to: SVG Repo, www.svgrepo.com, Generator: SVG Repo Mixer Tools -->
<svg width="800px" height="800px" viewBox="0 0 24 24" id="magicoon-Regular" xmlns="http://www.w3.org/2000/svg">
<defs>
<style>.cls-1{fill:#41416e;}</style>
</defs>
<title>log-out</title>
<g id="log-out-Regular">
<path id="log-out-Regular-2" data-name="log-out-Regular" class="cls-1" d="M12.75,21a.75.75,0,0,1-.75.75H8A4.756,4.756,0,0,1,3.25,17V7A4.756,4.756,0,0,1,8,2.25h4a.75.75,0,0,1,0,1.5H8A3.254,3.254,0,0,0,4.75,7V17A3.254,3.254,0,0,0,8,20.25h4A.75.75,0,0,1,12.75,21Zm7.78-9.53-4-4a.75.75,0,1,0-1.06,1.061l2.719,2.719H10a.75.75,0,0,0,0,1.5h8.189L15.47,15.47a.75.75,0,0,0,1.06,1.061l4-4A.75.75,0,0,0,20.53,11.47Z"/>
</g>
</svg>