<svg xmlns="http://www.w3.org/2000/svg" xmlns:xlink="http://www.w3.org/1999/xlink" version="1.1" width="1000"
	height="1000" viewBox="0 0 1000 1000" xml:space="preserve">
	<desc>Created with Fabric.js 3.5.0</desc>
	<defs>
	</defs>
	<rect x="0" y="0" width="100%" height="100%" fill="rgba(255,255,255,0)" />
	<g transform="matrix(-1.1364 0 0 -1.1364 500.0145 500.0145)" id="958200">
		<g style="" vector-effect="non-scaling-stroke">
			<g transform="matrix(33.3333 0 0 33.3333 116.7023 -0.0003)">
				<path
					style="stroke: rgb(28,39,76); stroke-width: 1.5; stroke-dasharray: none; stroke-linecap: round; stroke-dashoffset: 0; stroke-linejoin: miter; stroke-miterlimit: 4; is-custom-font: none; font-file-url: none; fill: none; fill-rule: nonzero; opacity: 0.5;"
					transform=" translate(-15.5011, -12)"
					d="M 9.00195 7 C 9.01406 4.82497 9.11051 3.64706 9.87889 2.87868 C 10.7576 2 12.1718 2 15.0002 2 L 16.0002 2 C 18.8286 2 20.2429 2 21.1215 2.87868 C 22.0002 3.75736 22.0002 5.17157 22.0002 8 L 22.0002 16 C 22.0002 18.8284 22.0002 20.2426 21.1215 21.1213 C 20.2429 22 18.8286 22 16.0002 22 H 15.0002 C 12.1718 22 10.7576 22 9.87889 21.1213 C 9.11051 20.3529 9.01406 19.175 9.00195 17"
					stroke-linecap="round" />
			</g>
			<g transform="matrix(33.3333 0 0 33.3333 -116.6669 -0.0001)">
				<path
					style="stroke: rgb(28,39,76); stroke-width: 1.5; stroke-dasharray: none; stroke-linecap: round; stroke-dashoffset: 0; stroke-linejoin: round; stroke-miterlimit: 4; is-custom-font: none; font-file-url: none; fill: none; fill-rule: nonzero; opacity: 1;"
					transform=" translate(-8.5, -12)" d="M 15 12 L 2 12 M 2 12 L 5.5 9 M 2 12 L 5.5 15"
					stroke-linecap="round" />
			</g>
		</g>
	</g>
</svg>